<svg id="Capa_1" enable-background="new 0 0 497.956 497.956" height="512" viewBox="0 0 497.956 497.956" width="512" xmlns="http://www.w3.org/2000/svg"><g><path d="m287.948 425.526h-78.82v33.021c0 21.765 17.644 39.41 39.41 39.41 21.765 0 39.41-17.644 39.41-39.41z" fill="#d6d1d6"/><g id="XMLID_118_"><g><g><path d="m248.979 0c133.5 0 201.68 160.2 109.13 256.41l-45.16 46.94v30.72l.59 48.21h-129.12l.59-48.21v-30.72l-45.16-46.94c-60.99-63.4-52.18-154.58-.88-209.4 26.55-28.38 64.48-47.01 110.01-47.01z" fill="#f8f7f8"/></g></g></g><path d="m185.009 334.07-.138 11.283h64.973l.189-25.622c.131-17.791-6.635-34.94-18.878-47.849l-23.57-24.853c-57.604-60.743-49.283-148.102-.831-200.624 19.628-21.284 45.844-36.842 76.931-42.598-10.983-2.478-22.573-3.807-34.706-3.807-45.53 0-83.46 18.63-110.01 47.01-51.3 54.82-60.11 146 .88 209.4l45.16 46.94z" fill="#efedee"/><g><g><path d="m270.871 373.762h-45.656c-3.545 0-6.605-2.482-7.338-5.95l-6.799-32.188c-.013-.06-.025-.12-.036-.18l-33.952-182.744c-.701-3.777.752-7.579 3.794-9.925 3.041-2.345 7.087-2.785 10.562-1.146l12.591 5.936 9.032-6.356c3.696-2.602 8.734-2.436 12.252.4l7.605 6.134 10.464-6.868c3.394-2.229 7.782-2.229 11.176 0l10.463 6.868 7.604-6.133c3.521-2.838 8.559-3.002 12.254-.4l9.031 6.355 12.592-5.937c3.473-1.638 7.521-1.198 10.562 1.147 3.042 2.346 4.495 6.148 3.794 9.924l-33.952 182.745c-.037.195-.081.389-.132.581l-8.669 32.188c-.882 3.274-3.851 5.549-7.242 5.549zm-39.574-15h33.827l7.097-26.351 32.18-173.205-6.62 3.121c-3.306 1.559-7.216 1.22-10.206-.885l-8.352-5.877-7.509 6.056c-3.455 2.786-8.27 3.022-11.981.587l-10.755-7.059-10.755 7.059c-3.712 2.437-8.528 2.199-11.982-.587l-7.508-6.056-8.354 5.878c-2.986 2.104-6.896 2.443-10.204.883l-6.62-3.121 32.217 173.407zm48.244-24.688h.01z" fill="#efedee"/></g></g><path d="m225.774 332.614-15.343-82.584-2.846-3.001c-6.469-6.821-12.099-13.98-16.942-21.386l20.4 109.8c.011.06.023.12.036.18l2.055 9.729h15.331z" fill="#e4e1e5"/><g><g id="XMLID_132_"><g><path d="m330.609 341.13v50.18c0 26.08-21.14 47.22-47.21 47.22h-68.84c-26.07 0-47.21-21.14-47.21-47.22v-50.18c0-3.9 3.16-7.06 7.05-7.06h149.16c3.89 0 7.05 3.16 7.05 7.06z" fill="#d6d1d6"/></g></g><path d="m258.554 414.193c-26.07 0-47.21-21.14-47.21-47.22v-32.903h-36.945c-3.89 0-7.05 3.16-7.05 7.06v50.18c0 26.08 21.14 47.22 47.21 47.22h68.84c17.769 0 33.251-9.827 41.307-24.339z" fill="#c7c0c7"/><g id="XMLID_133_"><g><path d="m330.609 366.26v25.05c0 3.49-.38 6.9-1.1 10.17h-161.06c-.72-3.27-1.1-6.68-1.1-10.17v-25.05z" fill="#c7c0c7"/></g></g></g><path d="m167.349 366.26v25.05c0 3.49.38 6.9 1.1 10.17h57.895c-9.225-8.618-15-20.885-15-34.507v-.713z" fill="#b8afb8"/></g></svg>