<svg xmlns="http://www.w3.org/2000/svg" width="42" height="42" viewBox="0 0 42 42"><defs><style>.b{fill:#fff;}</style></defs><g transform="translate(-721 -474)"><g transform="translate(14 63)"></g><g transform="translate(729 430.846)"><g transform="translate(0 54.154)"><path class="b" d="M24.634,54.154H.732A.732.732,0,0,0,0,54.886v4.146H25.366V54.886A.732.732,0,0,0,24.634,54.154Zm-6.1,3.9h-.976a.732.732,0,1,1,0-1.463h.976a.732.732,0,1,1,0,1.463Zm2.927,0h-.976a.732.732,0,1,1,0-1.463h.976a.732.732,0,1,1,0,1.463Z" transform="translate(0 -54.154)"/></g><g transform="translate(9.512 63.422)"><path class="b" d="M195.171,241.231a3.171,3.171,0,1,0,3.171,3.171A3.174,3.174,0,0,0,195.171,241.231Zm0,4.683a1.512,1.512,0,1,1,1.512-1.512A1.514,1.514,0,0,1,195.171,245.914Z" transform="translate(-192 -241.231)"/></g><g transform="translate(2.195 60.495)"><path class="b" d="M44.308,182.154v3.171a10.488,10.488,0,1,0,20.976,0v-3.171ZM54.8,192.886a4.634,4.634,0,1,1,4.634-4.634A4.639,4.639,0,0,1,54.8,192.886Z" transform="translate(-44.308 -182.154)"/></g></g></g></svg>