<svg id="Capa_1" enable-background="new 0 0 512 512" height="512" viewBox="0 0 512 512" width="512" xmlns="http://www.w3.org/2000/svg"><g><path d="m488.543 282.475h-465.086c-12.955 0-23.457-10.502-23.457-23.457v-137.066c0-12.955 10.502-23.457 23.457-23.457h465.087c12.955 0 23.457 10.502 23.457 23.457v137.066c-.001 12.955-10.503 23.457-23.458 23.457z" fill="#f6f6f6"/><path d="m488.543 98.495h-18.853c12.955 0 23.456 10.502 23.456 23.457v137.066c0 12.955-10.502 23.457-23.456 23.457h18.854c12.955 0 23.457-10.502 23.457-23.457v-137.066c-.001-12.955-10.503-23.457-23.458-23.457z" fill="#dfdde2"/><path d="m497.354 222.735h-482.707c-6.33 0-11.841-3.369-14.647-8.31v20.307c4.394 2.203 9.371 3.456 14.647 3.456h482.707c5.275 0 10.252-1.253 14.646-3.456v-20.306c-2.806 4.941-8.317 8.309-14.646 8.309z" fill="#bed8fb"/><path d="m497.354 222.735h-4.207v15.453h4.207c5.275 0 10.252-1.253 14.646-3.456v-20.306c-2.806 4.941-8.317 8.309-14.646 8.309z" fill="#9dc6fb"/><path d="m424.183 312.2h-336.366c-13.971 0-25.297-11.326-25.297-25.297v-20.99c0-4.891 3.965-8.856 8.856-8.856h369.249c4.891 0 8.856 3.965 8.856 8.856v20.99c-.001 13.971-11.327 25.297-25.298 25.297z" fill="#d3ced5"/><path d="m440.624 257.057h-17.448c4.891 0 8.856 3.965 8.856 8.856v20.99c0 13.971-11.326 25.297-25.298 25.297h17.448c13.971 0 25.297-11.326 25.297-25.297v-20.99c.001-4.891-3.964-8.856-8.855-8.856z" fill="#c3bec6"/><g><g><path d="m398.002 319.926c-4.268 0-7.726-3.459-7.726-7.726v-55.143c0-4.267 3.459-7.726 7.726-7.726s7.726 3.459 7.726 7.726v55.143c0 4.267-3.459 7.726-7.726 7.726z" fill="#c3bec6"/></g><g><path d="m113.998 319.926c-4.268 0-7.726-3.459-7.726-7.726v-55.143c0-4.267 3.459-7.726 7.726-7.726s7.726 3.459 7.726 7.726v55.143c0 4.267-3.459 7.726-7.726 7.726z" fill="#c3bec6"/></g><g><path d="m341.188 319.926c-4.268 0-7.726-3.459-7.726-7.726v-55.143c0-4.267 3.459-7.726 7.726-7.726 4.268 0 7.726 3.459 7.726 7.726v55.143c0 4.267-3.459 7.726-7.726 7.726z" fill="#c3bec6"/></g><g><path d="m170.813 319.926c-4.268 0-7.726-3.459-7.726-7.726v-55.143c0-4.267 3.459-7.726 7.726-7.726 4.268 0 7.726 3.459 7.726 7.726v55.143c0 4.267-3.459 7.726-7.726 7.726z" fill="#c3bec6"/></g><g><path d="m284.839 319.926c-4.268 0-7.726-3.459-7.726-7.726v-55.143c0-4.267 3.459-7.726 7.726-7.726s7.726 3.459 7.726 7.726v55.143c0 4.267-3.459 7.726-7.726 7.726z" fill="#c3bec6"/></g><g><path d="m227.162 319.926c-4.268 0-7.726-3.459-7.726-7.726v-55.143c0-4.267 3.459-7.726 7.726-7.726 4.268 0 7.726 3.459 7.726 7.726v55.143c0 4.267-3.459 7.726-7.726 7.726z" fill="#c3bec6"/></g></g><g><path d="m268.627 176.544h-25.255c-4.268 0-7.726-3.459-7.726-7.726s3.459-7.726 7.726-7.726h25.255c4.268 0 7.726 3.459 7.726 7.726.001 4.267-3.458 7.726-7.726 7.726z" fill="#454045"/></g><circle cx="448.922" cy="185.707" fill="#dd636e" r="16.889"/><g><g><path d="m158.075 413.505h-9.558c-4.268 0-7.726-3.459-7.726-7.726s3.459-7.726 7.726-7.726h9.558c14.8 0 26.841-12.041 26.841-26.841v-13.672c0-4.268 3.459-7.726 7.726-7.726 4.268 0 7.726 3.459 7.726 7.726v13.671c.001 23.321-18.972 42.294-42.293 42.294z" fill="#dfdfdf"/></g><g><path d="m126.771 380.439h-6.013c-4.268 0-7.726-3.459-7.726-7.726 0-4.268 3.459-7.726 7.726-7.726h6.013c7.73 0 14.019-6.289 14.019-14.019v-8.601c0-4.268 3.459-7.726 7.726-7.726s7.726 3.459 7.726 7.726v8.601c.001 16.25-13.22 29.471-29.471 29.471z" fill="#dfdfdf"/></g><g><path d="m363.484 413.505h-9.559c-23.321 0-42.294-18.973-42.294-42.294v-13.671c0-4.268 3.459-7.726 7.726-7.726s7.726 3.459 7.726 7.726v13.671c0 14.8 12.041 26.841 26.841 26.841h9.559c4.268 0 7.726 3.459 7.726 7.726s-3.458 7.727-7.725 7.727z" fill="#dfdfdf"/></g><g><path d="m391.242 380.439h-6.013c-16.25 0-29.472-13.221-29.472-29.472v-8.601c0-4.268 3.459-7.726 7.726-7.726s7.726 3.459 7.726 7.726v8.601c0 7.73 6.289 14.019 14.019 14.019h6.013c4.268 0 7.726 3.459 7.726 7.726.001 4.268-3.457 7.727-7.725 7.727z" fill="#dfdfdf"/></g></g></g></svg>