<svg xmlns="http://www.w3.org/2000/svg" xmlns:xlink="http://www.w3.org/1999/xlink" width="333" height="307" viewBox="0 0 333 307"><defs><style>.a,.e{fill:#fff;}.a{stroke:#dee2e6;}.b,.h,.o{fill:#3c515a;}.c{clip-path:url(#a);}.d{fill:url(#b);}.f{opacity:0.3;}.g{clip-path:url(#c);}.h{stroke:#fff;stroke-miterlimit:10;stroke-width:4.701px;}.i{fill:url(#d);}.j{fill:url(#e);}.k{fill:#f5f5f5;}.l{fill:#ff5252;}.m{fill:#ff0;}.n{fill:#69f0ae;}.o{opacity:0.5;}.p{fill:#e0e0e0;}</style><clipPath id="a"><rect class="a" width="333" height="307" rx="5"/></clipPath><linearGradient id="b" x1="0.492" y1="0.75" x2="0.492" y2="0.182" gradientUnits="objectBoundingBox"><stop offset="0" stop-color="gray" stop-opacity="0.251"/><stop offset="0.54" stop-color="gray" stop-opacity="0.122"/><stop offset="1" stop-color="gray" stop-opacity="0.102"/></linearGradient><clipPath id="c"><rect class="b" width="206.302" height="110.366" transform="matrix(0.991, 0.137, -0.137, 0.991, 15.15, 0)"/></clipPath><linearGradient id="d" x1="0.289" y1="0.96" x2="0.289" y2="-0.045" xlink:href="#b"/><linearGradient id="e" x1="0.5" y1="1" x2="0.5" y2="0" xlink:href="#b"/></defs><g class="c"><g transform="translate(0.351 26.468)"><rect class="d" width="124.376" height="218.857" transform="matrix(0.137, -0.991, 0.991, 0.137, 98.551, 126.486)"/><rect class="e" width="215.552" height="120.98" transform="matrix(0.991, 0.137, -0.137, 0.991, 116.659, 5.143)"/><g class="f" transform="translate(105.433 10.827)"><rect class="b" width="206.302" height="110.366" transform="matrix(0.991, 0.137, -0.137, 0.991, 15.15, 0)"/><g class="g" transform="translate(0 0)"><path class="h" d="M217.686,12.2l82.942,137.491,50.456,6.993,88.093-51.215-69.54-91.922L246.386,142.166l-70.468-26.478L301.824,5,404.483,164.08" transform="translate(-215.573 -13.998)"/></g></g><path class="i" d="M598.807,106.115c-1.463,10.548-23.159,32.606-23.159,32.606s-16.4-27.339-14.942-37.887a19.235,19.235,0,1,1,38.106,5.274Z" transform="translate(-396.698 -84.234)"/><path class="b" d="M599.419,109.3c-1.371,9.894-21.724,30.588-21.724,30.588s-15.389-25.645-14.018-35.538a18.04,18.04,0,1,1,35.739,4.954Z" transform="translate(-398.562 -87.08)"/><ellipse class="e" cx="9.043" cy="9.022" rx="9.043" ry="9.022" transform="matrix(0.137, -0.991, 0.991, 0.137, 173.004, 26.024)"/><path class="j" d="M0,200.76V379.91H258.348V200.76Z" transform="translate(0 -125.733)"/><rect class="e" width="251.777" height="164.819" transform="translate(3.832 86.172)"/><rect class="k" width="251.777" height="12.126" transform="translate(3.832 78.332)"/><circle class="l" cx="2.939" cy="2.939" r="2.939" transform="translate(10.474 81.275)"/><circle class="m" cx="2.939" cy="2.939" r="2.939" transform="translate(18.56 81.275)"/><circle class="n" cx="2.939" cy="2.939" r="2.939" transform="translate(26.643 81.275)"/><rect class="o" width="46.304" height="4.961" transform="translate(106.112 130.24)"/><rect class="p" width="50.713" height="4.961" transform="translate(72.673 151.556)"/><rect class="p" width="50.713" height="4.961" transform="translate(185.858 156.517) rotate(180)"/><rect class="p" width="113.186" height="4.961" transform="translate(72.486 162.213)"/><rect class="p" width="113.186" height="4.961" transform="translate(72.486 172.87)"/><rect class="j" width="47.039" height="9.187" transform="translate(105.563 195.656)"/><rect class="b" width="46.304" height="7.517" transform="translate(105.929 196.489)"/></g></g></svg>