<svg xmlns="http://www.w3.org/2000/svg" xmlns:xlink="http://www.w3.org/1999/xlink" width="349.586" height="313" viewBox="0 0 349.586 313"><defs><style>.a{fill:url(#a);}.b{fill:#f5f5f5;}.c{fill:#fff;}.d,.g{fill:#3c515a;}.d{opacity:0.3;}.e{fill:url(#d);}.f{fill:url(#e);}.h{fill:url(#g);}</style><linearGradient id="a" x1="0.5" y1="1" x2="0.5" gradientUnits="objectBoundingBox"><stop offset="0" stop-color="gray" stop-opacity="0.251"/><stop offset="0.535" stop-color="gray" stop-opacity="0.122"/><stop offset="1" stop-color="gray" stop-opacity="0.102"/></linearGradient><linearGradient id="d" x1="0.5" y1="1" x2="0.5" gradientUnits="objectBoundingBox"><stop offset="0" stop-color="#b3b3b3" stop-opacity="0.251"/><stop offset="0.535" stop-color="#b3b3b3" stop-opacity="0.102"/><stop offset="1" stop-color="#b3b3b3" stop-opacity="0.051"/></linearGradient><linearGradient id="e" x1="0.5" y1="1" x2="0.5" gradientUnits="objectBoundingBox"><stop offset="0" stop-opacity="0.122"/><stop offset="0.551" stop-opacity="0.09"/><stop offset="1" stop-opacity="0.02"/></linearGradient><linearGradient id="g" x1="0.5" y1="1" x2="0.5" gradientUnits="objectBoundingBox"><stop offset="0.005" stop-opacity="0.122"/><stop offset="0.551" stop-opacity="0.09"/><stop offset="1" stop-opacity="0.051"/></linearGradient></defs><g transform="translate(0 0)"><path class="a" d="M117.3,301.981,0,313V36.87L117.3,25.851Z"/><path class="a" d="M117.3,301.981,234.591,313V36.87L117.3,25.851Z"/><path class="a" d="M349.586,301.981,234.591,313V36.87l115-11.019Z"/><path class="b" d="M117.711,294.316,3.737,304.9V39.587L117.711,29Z"/><path class="c" d="M117.711,294.316,231.685,304.9V39.587L117.711,29Z"/><path class="b" d="M345.658,294.316,231.685,304.9V39.587L345.658,29Z"/><path class="d" d="M117.711,53.366,31.141,56.4v39.86h73.491V81.851l13.079-.459,19.93,6.152V59.517Z"/><path class="d" d="M117.711,276.254,20.553,285.6V250.1l97.158-9.342Z"/><path class="d" d="M107.077,166.367,9.919,175.71v-35.5l97.158-9.342Z"/><rect class="d" width="42.351" height="32.386" transform="translate(175.009 248.851)"/><rect class="d" width="42.351" height="32.386" transform="translate(161.224 172.836)"/><rect class="d" width="42.351" height="32.386" transform="translate(178.554 71.614)"/><path class="d" d="M329.466,266.289l-66.018,5.605V228.921l66.018-5.605Z"/><path class="d" d="M321.588,115.047l-66.018,5.605V77.679l66.018-5.605Z"/><path class="e" d="M377.429,55.943c0,15.407-26.933,59.039-26.933,59.039S323.563,71.35,323.563,55.943s12.058-27.9,26.933-27.9S377.429,40.536,377.429,55.943Z" transform="translate(-61.523 -20.737)"/><ellipse class="f" cx="8.142" cy="8.434" rx="8.142" ry="8.434" transform="translate(280.83 24.826)"/><path class="g" d="M375.418,55.993c0,13.764-24.922,52.743-24.922,52.743s-24.922-38.978-24.922-52.743a24.922,24.922,0,1,1,49.845,0Z" transform="translate(-61.523 -20.737)"/><circle class="c" cx="7.535" cy="7.535" r="7.535" transform="translate(281.438 25.983)"/><path class="e" d="M150.28,230.535c0,15.516-27.732,59.457-27.732,59.457s-27.732-43.94-27.732-59.457a27.735,27.735,0,1,1,55.464,0Z" transform="translate(-61.523 -20.737)"/><ellipse class="h" cx="8.384" cy="8.494" rx="8.384" ry="8.494" transform="translate(52.641 199.344)"/><path class="g" d="M147.47,230.379c0,13.764-24.922,52.743-24.922,52.743s-24.922-38.978-24.922-52.743a24.922,24.922,0,1,1,49.845,0Z" transform="translate(-61.523 -20.737)"/><circle class="c" cx="7.535" cy="7.535" r="7.535" transform="translate(53.49 200.369)"/><path class="g" d="M282.564,232.348c0,13.764-24.922,52.743-24.922,52.743s-24.922-38.978-24.922-52.743a24.922,24.922,0,1,1,49.845,0Z" transform="translate(-61.523 -20.737)"/><circle class="c" cx="7.535" cy="7.535" r="7.535" transform="translate(188.584 202.338)"/><path class="g" d="M380.241,216.594c0,13.764-24.922,52.743-24.922,52.743S330.4,230.358,330.4,216.594a24.922,24.922,0,1,1,49.845,0Z" transform="translate(-61.523 -20.737)"/><circle class="c" cx="7.535" cy="7.535" r="7.535" transform="translate(286.261 186.584)"/><path class="g" d="M160.074,45.659c0,13.764-24.922,52.743-24.922,52.743s-24.922-38.978-24.922-52.743a24.922,24.922,0,1,1,49.845,0Z" transform="translate(-61.523 -20.737)"/><circle class="c" cx="7.535" cy="7.535" r="7.535" transform="translate(66.094 15.649)"/></g></svg>